<svg xmlns="http://www.w3.org/2000/svg" viewBox="0 0 500 900" fill="#4a7cdb" stroke="#4a7cdb" stroke-width="0.5">
  <!-- Mexico -->
  <path d="M 100 30 Q 130 20, 170 22 Q 200 15, 230 20 L 260 35 L 270 55 Q 260 62, 245 58 L 225 62 L 210 75 L 198 92 L 188 112 L 178 138 L 168 165 L 162 190 L 168 210 L 182 228 L 200 242 L 218 255 L 238 268 Q 238 268, 225 272 L 205 260 L 185 245 L 168 228 L 152 205 L 140 178 L 130 148 L 120 115 L 110 82 L 102 52 Z" opacity="0.35"/>
  <!-- Baja California -->
  <path d="M 82 52 Q 70 80, 62 110 Q 55 140, 52 170 Q 52 195, 60 215" fill="none" stroke-width="2" opacity="0.3"/>
  <!-- Yucatan -->
  <path d="M 218 255 Q 230 238, 245 235 Q 258 232, 262 242 Q 260 252, 248 258 Z" opacity="0.3"/>

  <!-- Guatemala -->
  <path d="M 168 228 L 182 228 L 188 240 L 178 248 L 168 242 Z" opacity="0.3"/>
  <!-- Honduras -->
  <path d="M 188 228 L 205 225 L 212 235 L 202 245 L 188 240 Z" opacity="0.3"/>
  <!-- El Salvador -->
  <path d="M 168 242 L 178 248 L 182 258 L 170 255 Z" opacity="0.25"/>
  <!-- Nicaragua -->
  <path d="M 182 248 L 202 245 L 208 260 L 195 270 L 182 262 Z" opacity="0.3"/>
  <!-- Costa Rica -->
  <path d="M 195 270 L 208 260 L 218 275 L 210 285 L 198 280 Z" opacity="0.3"/>
  <!-- Panama -->
  <path d="M 210 285 L 218 275 L 235 280 L 248 290 L 240 298 L 225 295 Z" opacity="0.3"/>

  <!-- Cuba -->
  <path d="M 260 85 Q 280 72, 310 70 Q 340 68, 358 78 Q 365 85, 355 92 Q 338 98, 312 100 Q 285 100, 268 92 Q 258 88, 260 85 Z" opacity="0.35"/>
  <!-- Jamaica -->
  <ellipse cx="310" cy="118" rx="12" ry="5" opacity="0.25"/>
  <!-- Hispaniola -->
  <path d="M 350 100 Q 365 92, 385 95 Q 400 98, 398 108 Q 390 115, 372 115 Q 355 112, 350 105 Z" opacity="0.3"/>
  <!-- Puerto Rico -->
  <path d="M 405 105 Q 415 100, 428 102 Q 435 106, 432 112 Q 422 116, 410 114 Q 403 110, 405 105 Z" opacity="0.3"/>

  <!-- Colombia -->
  <path d="M 215 340 Q 230 320, 255 310 Q 275 305, 295 310 Q 315 318, 325 335 Q 330 350, 322 368 L 308 375 L 285 370 L 260 365 L 240 358 L 225 350 Z" opacity="0.35"/>
  <!-- Venezuela -->
  <path d="M 295 310 Q 320 300, 350 305 Q 375 312, 390 328 Q 395 342, 385 355 L 365 360 L 340 358 L 322 355 L 325 335 Z" opacity="0.35"/>
  <!-- Guyana/Suriname/Fr.Guiana -->
  <path d="M 390 328 Q 405 320, 418 330 Q 425 342, 420 355 L 400 360 L 385 355 Z" opacity="0.2"/>

  <!-- Ecuador -->
  <path d="M 205 375 Q 215 358, 240 358 L 260 365 L 258 385 L 240 395 L 218 390 Z" opacity="0.35"/>
  <!-- Peru -->
  <path d="M 195 400 Q 205 375, 218 390 L 240 395 L 258 385 L 275 400 L 282 430 L 275 460 L 258 475 L 235 470 L 215 450 L 200 425 Z" opacity="0.35"/>
  <!-- Brazil (large, background) -->
  <path d="M 260 365 L 285 370 L 308 375 L 340 358 L 365 360 L 400 360 L 420 355 Q 435 370, 440 395 Q 442 425, 435 460 Q 425 500, 408 535 Q 392 565, 370 590 Q 350 608, 330 618 Q 310 625, 295 618 L 282 600 L 275 570 L 270 535 L 268 500 L 272 470 L 275 460 L 282 430 L 275 400 L 258 385 Z" opacity="0.2"/>

  <!-- Bolivia -->
  <path d="M 258 475 L 275 460 L 272 470 L 268 500 L 290 505 L 295 490 L 282 475 L 275 460 L 282 430 L 275 460 Z M 258 475 L 272 490 L 290 505 L 280 520 L 262 515 L 252 498 Z" opacity="0.3"/>
  <!-- Paraguay -->
  <path d="M 290 505 L 310 500 L 325 515 L 318 535 L 300 535 L 285 525 Z" opacity="0.3"/>
  <!-- Uruguay -->
  <path d="M 325 570 Q 335 558, 340 568 Q 342 580, 338 592 Q 330 600, 322 595 Q 318 585, 320 575 Z" opacity="0.3"/>
  <!-- Chile (long thin strip) -->
  <path d="M 235 470 L 248 478 L 252 498 L 248 520 L 242 548 L 238 575 L 235 605 L 238 640 L 245 670 L 252 700 L 248 715 L 240 710 L 232 685 L 228 655 L 225 625 L 222 595 L 225 560 L 228 530 L 232 500 L 232 478 Z" opacity="0.35"/>
  <!-- Argentina -->
  <path d="M 252 498 L 262 515 L 280 520 L 285 525 L 300 535 L 318 535 L 325 515 L 330 535 L 335 558 L 338 575 L 340 592 L 335 610 L 325 635 L 310 660 L 295 682 L 280 698 L 268 708 L 258 712 L 252 700 L 245 670 L 238 640 L 235 605 L 238 575 L 242 548 L 248 520 Z" opacity="0.35"/>
  <!-- Tierra del Fuego -->
  <path d="M 258 712 L 268 708 L 275 718 L 268 728 L 255 725 Z" opacity="0.25"/>
</svg>
